<?xml version="1.0" standalone="no"?>
<!DOCTYPE svg PUBLIC "-//W3C//DTD SVG 20010904//EN"
 "http://www.w3.org/TR/2001/REC-SVG-20010904/DTD/svg10.dtd">
<svg version="1.0" xmlns="http://www.w3.org/2000/svg"
 width="380.000000pt" height="380.000000pt" viewBox="0 0 380.000000 380.000000"
 preserveAspectRatio="xMidYMid meet">
<metadata>
Created by potrace 1.14, written by Peter Selinger 2001-2017
</metadata>
<g transform="translate(0.000000,380.000000) scale(0.100000,-0.100000)"
fill="#000000" stroke="none">
<path d="M764 3745 c-4 -9 -1 -22 5 -29 7 -8 15 -43 19 -78 6 -50 11 -62 23
-60 17 2 47 -53 35 -65 -4 -4 -20 1 -36 11 -17 9 -34 14 -40 11 -17 -10 -58
-88 -65 -124 -8 -40 3 -51 57 -51 37 0 37 0 26 30 -7 23 -7 34 3 46 18 22 34
2 20 -25 -19 -34 22 -27 52 9 l25 29 15 -38 c18 -45 13 -95 -13 -129 l-19 -23
-27 40 c-15 23 -28 41 -30 41 -12 0 -169 -90 -214 -123 -109 -80 -240 -243
-240 -298 0 -8 19 -25 43 -39 36 -21 56 -25 133 -26 50 0 96 -4 102 -8 7 -4
10 -2 7 6 -4 9 3 14 16 15 71 6 189 61 189 90 0 17 -4 16 -42 -3 -17 -9 -39
-14 -49 -11 -11 3 -17 1 -13 -4 5 -8 -11 -11 -71 -11 -57 0 -75 2 -75 10 0 10
96 112 105 112 3 0 13 6 20 13 43 38 83 59 97 51 7 -5 8 -3 4 5 -5 8 0 14 13
18 12 3 21 9 21 14 0 5 5 9 10 9 18 0 11 -28 -11 -43 -14 -10 -17 -17 -9 -22
15 -9 70 -13 64 -4 -2 4 3 9 11 12 9 4 13 17 11 42 -2 19 0 38 5 40 4 3 6 12
3 19 -3 7 2 16 11 20 11 4 19 -2 25 -19 5 -14 19 -44 30 -67 30 -63 36 -109
15 -124 -16 -12 -16 -14 -1 -29 9 -9 16 -18 16 -20 0 -3 -25 -16 -55 -30 -64
-31 -135 -97 -186 -175 -54 -82 -134 -254 -163 -350 -47 -158 -56 -184 -95
-265 -45 -90 -124 -180 -186 -210 -24 -11 -66 -20 -105 -21 -35 -2 -66 -7 -68
-12 -7 -22 128 -132 192 -156 42 -15 114 -17 154 -3 l40 14 -9 -26 c-5 -14
-12 -33 -16 -41 -3 -8 -7 -20 -9 -27 -1 -6 -14 -48 -28 -92 -40 -124 -55 -209
-51 -291 4 -93 7 -113 20 -122 6 -5 4 -8 -5 -9 -10 0 -9 -3 5 -10 17 -8 15 -8
-7 -4 -33 6 -35 -3 -11 -48 9 -18 16 -35 15 -39 -1 -4 6 -4 15 -1 13 5 15 2
10 -11 -4 -9 -3 -15 2 -12 12 8 43 -29 34 -40 -5 -5 -4 -6 1 -2 5 4 26 -7 46
-26 20 -18 51 -41 68 -52 38 -22 40 -30 10 -38 -66 -16 -129 -82 -98 -101 24
-15 6 -22 -51 -19 -62 3 -79 10 -83 35 -1 8 -9 29 -19 48 -20 41 -21 44 -4 35
8 -6 8 -3 -1 9 -8 9 -11 25 -7 38 6 19 4 21 -19 17 -14 -3 -26 -2 -26 1 0 12
-103 111 -122 117 -33 10 -156 -103 -206 -189 -22 -38 -22 -45 -22 -448 l0
-409 1436 0 1435 0 -2 73 c-1 39 -10 104 -21 142 -10 39 -20 80 -23 92 -3 12
-9 33 -15 47 -5 13 -6 27 -3 30 4 3 1 6 -5 6 -10 0 -33 54 -31 74 0 5 -3 12
-8 15 -19 13 -64 102 -57 113 4 7 3 8 -4 4 -11 -7 -45 46 -37 58 3 3 2 4 -1 2
-9 -7 -33 17 -27 27 2 4 0 7 -6 7 -6 0 -15 9 -20 19 -8 15 -5 26 18 55 16 19
32 32 36 28 5 -4 5 -1 1 5 -4 7 -1 23 6 35 7 13 11 27 10 31 -1 4 5 10 13 13
8 3 13 10 10 14 -3 4 2 21 10 36 8 16 15 35 15 42 0 6 5 12 11 12 5 0 7 5 4
11 -4 5 6 35 21 65 36 70 62 94 35 31 -11 -25 -17 -48 -14 -51 4 -3 0 -6 -7
-6 -11 0 -11 -3 -2 -12 13 -13 42 5 42 27 0 8 3 15 8 17 12 5 95 120 124 170
22 40 26 59 24 108 -2 39 -8 66 -19 78 -15 16 -24 52 -13 52 8 0 141 -83 154
-96 7 -8 16 -14 20 -14 15 0 52 -68 52 -95 0 -22 3 -26 11 -18 38 38 -20 192
-102 277 -16 16 -26 34 -22 39 3 6 1 7 -4 4 -6 -4 -16 -1 -22 7 -9 10 -8 16 4
26 8 7 15 18 15 25 0 8 3 15 8 17 11 5 92 125 92 137 0 6 4 11 9 11 5 0 11 9
14 21 3 12 10 18 16 14 7 -3 8 0 5 9 -4 9 1 18 10 22 9 3 14 10 11 14 -8 13
13 22 28 13 16 -10 57 -12 57 -3 0 5 12 11 26 14 14 4 35 15 46 26 12 11 26
17 31 13 6 -3 7 -1 4 4 -4 6 1 18 11 26 17 15 19 15 33 -1 32 -35 65 -58 78
-54 8 3 11 0 7 -6 -3 -6 1 -8 13 -5 10 2 60 -16 112 -41 62 -30 97 -42 104
-36 7 6 14 7 18 4 3 -3 8 4 12 16 4 13 0 31 -11 48 -10 15 -17 31 -16 35 1 5
-2 6 -6 3 -5 -3 -17 3 -27 14 -15 17 -16 22 -4 37 13 16 12 17 -3 5 -14 -11
-18 -10 -29 10 -7 13 -20 38 -31 56 -10 17 -18 33 -17 35 0 1 -2 9 -5 17 -27
72 -43 128 -40 143 1 9 -2 17 -8 17 -5 0 -8 6 -5 13 2 6 0 23 -6 37 -15 38
-18 290 -4 290 8 0 8 3 2 8 -14 9 -14 72 0 72 7 0 7 3 -1 8 -13 9 -13 64 1 74
6 5 6 8 -1 8 -6 0 -10 16 -9 36 0 20 -3 66 -8 103 -5 36 -10 74 -10 83 -1 9
-5 14 -9 12 -4 -3 -8 0 -8 6 0 18 -85 94 -134 120 -25 14 -46 27 -46 30 0 8
97 70 109 70 19 0 12 29 -9 40 -11 6 -20 8 -20 5 0 -3 -9 -1 -20 5 -11 6 -20
7 -20 2 0 -9 -55 -26 -72 -23 -5 0 -8 -3 -8 -7 0 -16 -78 -43 -104 -36 l-25 6
24 48 c14 27 52 81 85 121 33 39 60 75 60 80 0 5 -8 13 -18 18 -32 17 -100
-26 -198 -128 -91 -93 -93 -94 -126 -85 -23 7 -33 16 -34 29 0 36 25 132 51
190 30 68 30 75 7 75 -43 0 -113 -101 -175 -250 l-14 -36 -69 1 c-50 1 -81 7
-111 23 -50 26 -95 28 -114 6 -11 -13 -8 -19 15 -37 l28 -22 -27 -3 c-40 -3
-106 -35 -137 -67 -16 -15 -35 -52 -44 -84 -8 -31 -21 -63 -27 -72 -19 -25
-66 -36 -162 -37 -78 0 -104 4 -190 34 -107 37 -229 77 -232 76 -2 0 -17 4
-35 9 -125 36 -313 29 -438 -16 -89 -32 -104 -34 -106 -17 -3 25 -4 26 -15 15
-24 -24 -71 17 -90 80 -7 20 -16 37 -22 37 -5 0 -7 9 -4 20 3 11 2 18 -3 15
-4 -3 -10 1 -13 9 -11 28 26 27 62 -2 40 -32 82 -47 78 -28 -1 6 4 10 11 8 8
-1 11 2 7 8 -3 6 4 14 16 18 19 8 20 9 5 15 -10 4 -14 12 -10 19 4 7 -2 5 -12
-4 -18 -16 -23 -16 -40 -3 -12 9 -14 15 -6 16 17 2 23 4 53 16 14 6 36 13 50
15 13 1 26 5 29 8 3 3 22 11 42 17 27 8 40 8 49 -1 9 -8 10 -8 5 2 -5 8 2 12
26 13 18 0 40 2 49 4 33 6 39 -10 19 -43 -11 -18 -25 -30 -30 -27 -6 4 -9 1
-8 -7 2 -7 -3 -12 -10 -10 -8 1 -11 -2 -8 -7 6 -10 -78 -81 -95 -81 -5 0 -9
-4 -9 -10 0 -39 135 31 232 120 69 62 108 119 115 164 2 17 6 37 8 43 15 43
-154 68 -310 47 -90 -12 -292 -85 -309 -112 -3 -5 1 -26 9 -46 22 -51 20 -54
-24 -43 -22 6 -38 14 -35 19 3 4 -2 5 -10 2 -17 -6 -43 21 -61 63 l-12 28 46
0 c34 0 46 4 46 15 0 8 -10 16 -23 18 -13 2 -21 9 -19 15 7 21 27 18 54 -9
l27 -27 23 29 c13 16 23 35 23 41 0 20 -78 54 -128 56 -42 2 -46 0 -56 -30
-16 -46 -23 -48 -41 -13 -15 29 -15 33 0 44 14 10 12 15 -23 43 -21 17 -45 45
-51 62 -15 34 -39 48 -47 26z m2610 -1571 c3 -8 2 -12 -4 -9 -6 3 -10 10 -10
16 0 14 7 11 14 -7z m-2647 -639 c0 -19 -5 -35 -11 -35 -6 0 -5 -4 3 -9 12 -8
12 -12 2 -25 -8 -9 -9 -16 -5 -16 5 0 10 -21 10 -47 1 -81 15 -182 30 -226 16
-46 6 -68 -20 -42 -9 9 -16 14 -16 11 0 -3 -9 2 -19 11 -11 9 -18 20 -15 25 3
5 0 7 -8 6 -7 -2 -12 5 -12 14 1 10 -2 16 -6 13 -24 -15 -45 143 -24 176 5 8
9 20 10 27 4 23 70 152 78 152 2 0 3 -16 3 -35z m389 -434 c-3 -4 4 -7 15 -8
10 -1 27 -8 38 -15 18 -13 18 -14 -9 -30 -15 -8 -32 -13 -36 -9 -13 8 -34 58
-34 78 0 13 3 13 15 3 8 -7 13 -15 11 -19z m-293 -64 l30 -39 -66 5 c-36 2
-74 10 -83 18 -12 9 -15 9 -10 2 11 -19 -6 -15 -34 8 -14 11 -19 18 -13 14 15
-7 65 19 103 53 l25 22 10 -22 c5 -13 22 -40 38 -61z"/>
<path d="M3036 1193 c-6 -14 -5 -15 5 -6 7 7 10 15 7 18 -3 3 -9 -2 -12 -12z"/>
<path d="M2755 931 c-3 -5 -2 -12 3 -15 5 -3 9 1 9 9 0 17 -3 19 -12 6z"/>
<path d="M433 840 c-2 -17 1 -18 18 -10 10 6 19 13 19 16 0 3 -4 2 -10 -1 -5
-3 -10 -1 -10 4 0 20 -16 11 -17 -9z"/>
<path d="M2750 689 c0 -5 19 -13 43 -20 23 -6 47 -13 52 -16 6 -3 -1 4 -15 15
-25 21 -80 35 -80 21z"/>
<path d="M3047 578 c57 -49 62 -55 58 -62 -3 -3 -2 -4 1 -1 4 2 19 -2 35 -11
16 -8 29 -12 29 -10 0 18 -26 56 -46 66 -13 7 -20 18 -17 24 3 6 3 8 -1 4 -4
-3 -26 0 -48 8 -22 8 -42 14 -45 14 -2 0 13 -15 34 -32z"/>
<path d="M3190 526 c0 -2 7 -7 16 -10 8 -3 12 -2 9 4 -6 10 -25 14 -25 6z"/>
</g>
</svg>
