<svg xmlns="http://www.w3.org/2000/svg" width="483" height="483" viewBox="0 0 483 483">
  <defs>
    <style>
      .cls-1 {
        fill: #dddbe6;
        fill-rule: evenodd;
      }
    </style>
  </defs>
  <path id="Color_Fill_1" data-name="Color Fill 1" class="cls-1" d="M198,154c-0.667,0-101.142,7.941-121,8,0.443-32.5,5.745-75.339,11-103,2.131-11.216,6.377-30.43,11-33C129.375,9.112,194.42,1.543,240,0c49.631-1.68,130.45,15.454,143,24,8.586,5.846,8.933,18.346,12,30,6.444,24.487,10.671,56.367,11,85h-7c-5.461.109-12.105,1.1-19,1-22.693-26.073-63.685-28.982-96-10-8.036,4.72-13.823,9.951-20,19-6.517.294-36.577,3.033-44,3-16.662-40.175-100.126-46.94-121-6,3.032,0.693,7.648-5.506,12-7C112.786,138.387,152.111,120.592,198,154Zm137-20c14.986-.29,19.166-0.261,28,2,0,0.667,10.442,2.429,12,5-2.333,0-9.667,1-12,1-7.666.555-38.4,3.425-50,4-5.4.268-11.831,0.951-15,0,0.667,0,4.333-3,5-3C313.559,138.345,329.269,134.483,335,134ZM51,171c0.171,22.993,4,66.667,4,67,17.727-.127,321.006-23.334,380-28-0.079-.566-3.943-65.564-4-66C430.667,144,51.84,170.654,51,171ZM372,282c-0.667,0-2.333,5-3,5-4,14.729-31.341,52.331-44,58-9.862,4.416-47.271,13.154-61,8-7.6-2.851-16.78-14.41-21-21h-2c-3.595,7.11-15.468,19.688-20,21-16.224,4.7-61.123-6.312-70-14-9.865-8.543-21.338-26.489-29-39-2.742-4.478-3.6-9.324-7-13v-1h-1c1.428,33.376,29.441,71.638,43,96-23.14-21.035-38.919-53.589-49-77-8.83-20.5-10.35-30.041-13-34-2.687-4.014-4.882-3.321-9-10,1.3,36.144,18.3,69.422,32,93,15.089,25.959,31.806,48.612,49,72a445.546,445.546,0,0,0,30,36c7.321,8.034,21.47,20.714,28,21,2.412-.465,3.333-2,4-2,2.934-12.91-11.043-45.766-8-57l7-16c0.81-4.894-3.4-12.852-6-15v-2c1.726-.645.979,0.8,2,0,0.224,0.266,39.075-.071,39,0-1.309,4.729-7.378,11.7-6,18,1.813,8.294,9.28,14.747,7,26-1.453,7.173-10.855,36.238-9,41,0.333,1,.34,4.371,3,7,17.6-2.245,38.062-30.629,48-43,27.765-34.563,55.2-71.345,76-114,5.138-10.537,8.559-22.752,12-34,2.17-7.094,3.323-16.176,4-22,0-1.667,1-7.333,1-9-0.667,0-2.333,4-3,4-1.788,3.024-5.832,5.127-7,8-0.782,1.922-3.3,12.447-6,19-6.206,15.066-12.567,32.156-21,46-5.889,9.668-12.22,19.861-19,29-3.968,5.348-10.358,9.3-14,15h-1c10.271-19.9,23.811-39.064,33-60,2.6-5.933,5.112-12.4,7-18C369.493,299.578,372,283.333,372,282ZM189,330c-29.534-.3-45.723-28.433-56-42-2.582-5.382,10.212,2.105,31-9-49.523,7.817-69.408-12.856-75-23,0.409-.006,318.067-25.39,318-25-7.3,42.282-42.969,52.977-86,48,1.535,3.354,24.745,7.116,31,7-3.966,13.02-32.67,44.338-55,44-16.585-.251-26.838-12.127-27-15,0.658-2.133,5.237-6.435,8-8,3.333,0,25.038,2.8,18-19-1.2,13.893-7.909,13.075-13,13-4.771-.549-7.9-1.489-15-4-7.707,8.4-15.494,14.852-26,15-13.023.184-20.6-10.7-26-15,0,0-4.9,3.266-15,4-9.408,1.721-10.477-5.678-12-12-6.782,20.479,13.771,17.36,18,18,3.292,2.817,8.445,5.733,8,8C215,318.342,201.283,330.123,189,330Z"/>
</svg>
