<?xml version="1.0" encoding="UTF-8"?>
<svg width="752pt" height="752pt" version="1.1" viewBox="0 0 752 752" xmlns="http://www.w3.org/2000/svg">
 <path d="m463.52 379.79c23.391-22.551 37.98-54.168 37.98-89.152 0-68.332-55.594-123.92-123.92-123.92s-123.92 55.586-123.92 123.92c0 34.984 14.59 66.605 37.984 89.156-48.594 24.324-82.062 74.555-82.062 132.5v65.531c0 6.5391 5.3008 11.84 11.84 11.84h312.32c6.5352 0 11.84-5.3008 11.836-11.84l0.003906-65.531c0-57.941-33.465-108.17-82.059-132.5zm-186.18-89.152c0-55.277 44.973-100.24 100.24-100.24 55.277 0 100.24 44.961 100.24 100.24 0 55.277-44.973 100.25-100.24 100.25-55.27 0.003906-100.24-44.965-100.24-100.24zm244.56 275.34h-288.64v-53.688c0-52.82 33.117-97.961 79.641-116 18.84 11.574 40.988 18.266 64.676 18.266s45.84-6.6875 64.676-18.266c46.52 18.035 79.641 63.18 79.641 116z" fill="#fff"/>
</svg>
