<?xml version="1.0" encoding="UTF-8"?>
<svg width="752pt" height="752pt" version="1.1" viewBox="0 0 752 752" xmlns="http://www.w3.org/2000/svg">
 <path d="m347.59 196.04c-83.695 0-151.55 29.684-151.55 66.301 0 36.617 67.848 66.301 151.55 66.301 83.695 0 151.55-29.684 151.55-66.301 0-36.617-67.848-66.301-151.55-66.301zm-151.4 112.48v38.922c8.2852 12.539 25.379 21.859 37.887 27.379 28.395 12.168 68.836 20.129 113.51 20.129 44.676 0 85.117-7.9609 113.51-20.129 12.543-5.8906 29.703-14.082 38.035-27.676v-38.625c-8.4805 6.6797-18.859 12.418-30.637 17.465-31.598 13.543-74.043 21.605-120.91 21.605-46.867 0-89.312-8.0664-120.91-21.605-11.734-5.0273-22.023-10.812-30.488-17.465zm-0.14844 66.152v38.922c8.2422 12.629 25.473 21.984 38.035 27.527 28.395 12.168 68.836 20.129 113.51 20.129 27.543 0 53.422-3.1055 75.922-8.2891 12.961-23.262 37.723-39.07 66.152-39.07 2.9688 0 5.8516 0.25391 8.7305 0.59375 0.24219-0.35938 0.51172-0.66797 0.73828-1.0352v-38.773c-8.4805 6.6797-18.859 12.562-30.637 17.609-31.598 13.543-74.043 21.605-120.91 21.605-46.867 0-89.312-8.0664-120.91-21.605-11.777-5.0469-22.152-10.934-30.637-17.609zm293.62 48.691c-36.617 0-66.301 29.684-66.301 66.301 0 36.617 29.684 66.301 66.301 66.301 36.617 0 66.301-29.684 66.301-66.301 0-36.617-29.684-66.301-66.301-66.301zm0 9.4727c16.375 0 30.781 11.672 30.781 27.379 0 16.637-8.0938 25.582-14.059 31.078-5.9688 5.4961-9.6211 7.5312-9.6211 19.684 0.050781 3.7539-3.3516 7.25-7.1055 7.25s-7.1562-3.5-7.1055-7.25c0-16.117 8.1875-24.781 14.059-30.191s9.6211-7.7383 9.6211-20.57c0-6.7812-6.8086-13.172-16.574-13.172-9.1484 0-15.492 4.1523-16.723 9.3242-0.87891 3.6562-4.9336 6.2227-8.5859 5.3281-3.6484-0.89453-6.2344-5.0859-5.3281-8.7305 3.1836-13.383 16.914-20.129 30.637-20.129zm-293.62 8.1406v20.273c0 36.617 67.875 66.301 151.55 66.301 26.258 0 50.859-3.1133 72.367-8.2891-3.8906-9.1094-6.0664-19.094-6.0664-29.598 0-5.3281 0.57031-10.516 1.6289-15.539-20.906 3.9492-43.777 6.0664-67.93 6.0664-46.867 0-89.312-8.0664-120.91-21.605-11.777-5.0469-22.152-10.934-30.637-17.609zm293.62 86.578c5.2305 0 9.4727 4.2422 9.4727 9.4727 0 5.2305-4.2422 9.4727-9.4727 9.4727-5.2305 0-9.4727-4.2422-9.4727-9.4727 0-5.2305 4.2422-9.4727 9.4727-9.4727z" fill="#fff"/>
</svg>
